<svg width="370" height="370" viewBox="0 0 370 370" fill="none" xmlns="http://www.w3.org/2000/svg">
<line x1="171" y1="210" x2="171" y2="370" stroke="#88CCF1" stroke-width="14"/>
<path d="M185 370C135.935 370 88.8795 350.509 54.1852 315.815C19.491 281.121 -1.3649e-06 234.065 0 185C1.3649e-06 135.935 19.491 88.8795 54.1852 54.1852C88.8795 19.491 135.935 -5.85095e-07 185 0V14.9735C139.906 14.9735 96.6593 32.887 64.7731 64.7731C32.887 96.6593 14.9735 139.906 14.9735 185C14.9735 230.094 32.887 273.341 64.7731 305.227C96.6593 337.113 139.906 355.026 185 355.026L185 370Z" fill="#88CCF1"/>
<path d="M161.465 133.654C187.844 132.95 213.423 142.754 232.574 160.91C251.725 179.065 262.879 204.085 263.583 230.465C264.287 256.844 254.482 282.423 236.327 301.574C218.171 320.725 193.151 331.879 166.772 332.583L166.385 318.1C188.924 317.498 210.3 307.968 225.812 291.606C241.324 275.244 249.701 253.389 249.1 230.851C248.498 208.312 238.968 186.936 222.606 171.424C206.244 155.912 184.389 147.535 161.851 148.137L161.465 133.654Z" fill="#88CCF1"/>
</svg>
