<svg width="43" height="43" viewBox="0 0 43 43" fill="none" xmlns="http://www.w3.org/2000/svg">
<path d="M28.208 27.094C26.1776 26.961 24.5812 25.2813 24.5812 23.2281C24.5812 23.1595 24.5826 23.091 24.5866 23.0225V23.0319C24.5826 22.9674 24.5799 22.8921 24.5799 22.8155C24.5799 20.7663 26.1789 19.092 28.1973 18.9697H28.208C30.2357 19.0799 31.8375 20.7502 31.8375 22.7954C31.8375 22.8787 31.8348 22.9606 31.8294 23.0426V23.0319C31.8334 23.0991 31.8361 23.1783 31.8361 23.2576C31.8361 25.3041 30.2357 26.9771 28.2174 27.0927H28.2067L28.208 27.094ZM14.8162 27.094C12.7858 26.961 11.1894 25.2813 11.1894 23.2281C11.1894 23.1595 11.1908 23.091 11.1948 23.0225V23.0319C11.1908 22.9674 11.1881 22.8921 11.1881 22.8155C11.1881 20.7663 12.7871 19.092 14.8054 18.9697H14.8162C16.8439 19.0799 18.4457 20.7502 18.4457 22.7954C18.4457 22.8787 18.443 22.9606 18.4376 23.0426V23.0319C18.4416 23.0964 18.4443 23.1716 18.4443 23.2482C18.4443 25.2974 16.8453 26.9717 14.8269 27.094H14.8162ZM35.4656 8.68734C33.0966 7.56934 30.3446 6.68515 27.4636 6.17318L27.2633 6.14362C27.2566 6.14227 27.2486 6.14093 27.2405 6.14093C27.1935 6.14093 27.1532 6.16646 27.1317 6.20409C26.8172 6.75637 26.4759 7.44571 26.1682 8.15252L26.1104 8.30168C24.7263 8.07996 23.13 7.95365 21.504 7.95365C19.8781 7.95365 18.2817 8.07996 16.7243 8.32318L16.8977 8.30034C16.5348 7.45377 16.1882 6.76577 15.8052 6.09927L15.8603 6.20274C15.8374 6.16377 15.7958 6.13959 15.7488 6.13959C15.742 6.13959 15.734 6.13959 15.7273 6.14093C12.646 6.68246 9.89403 7.5653 7.32209 8.77065L7.525 8.68465C7.50216 8.69405 7.48335 8.71018 7.47125 8.73034C3.63619 14.1604 1.34106 20.9168 1.34106 28.2093C1.34106 29.4281 1.40556 30.6308 1.53053 31.816L1.51844 31.6681C1.52247 31.7071 1.54263 31.7394 1.57085 31.7622C4.44647 33.9136 7.78972 35.647 11.3977 36.7851L11.6342 36.8496C11.6449 36.8537 11.6584 36.855 11.6718 36.855C11.7148 36.855 11.7524 36.8349 11.7753 36.804C12.4942 35.8365 13.1782 34.74 13.7708 33.5897L13.8339 33.4553C13.842 33.4392 13.8473 33.4191 13.8473 33.3976C13.8473 33.3425 13.8124 33.2968 13.764 33.278H13.7627C12.5372 32.805 11.5012 32.3011 10.5148 31.7232L10.6183 31.7797C10.5793 31.7568 10.5538 31.7152 10.5538 31.6681C10.5538 31.6265 10.574 31.5889 10.6049 31.566C10.8158 31.4075 11.0282 31.2435 11.2297 31.0769C11.2512 31.0594 11.2794 31.0487 11.309 31.0487C11.3278 31.0487 11.3453 31.0527 11.3601 31.0594H11.3587C14.3257 32.4851 17.8087 33.3183 21.4852 33.3183C25.1617 33.3183 28.6461 32.4851 31.7555 30.9976L31.6117 31.0594C31.6278 31.0514 31.6453 31.0473 31.6655 31.0473C31.695 31.0473 31.7233 31.0581 31.7448 31.0756C31.9463 31.2422 32.1573 31.4088 32.3709 31.566C32.4018 31.5902 32.422 31.6278 32.422 31.6695C32.422 31.7165 32.3965 31.7568 32.3602 31.7797C31.472 32.3105 30.4359 32.813 29.3569 33.2282L29.2158 33.2766C29.1674 33.2954 29.1325 33.3425 29.1325 33.3962C29.1325 33.4177 29.1379 33.4379 29.1473 33.4553C29.8205 34.7453 30.5031 35.8391 31.2583 36.8779L31.2046 36.8013C31.2274 36.8335 31.2664 36.855 31.308 36.855C31.3215 36.855 31.3349 36.8523 31.347 36.8496C35.1968 35.651 38.5455 33.9176 41.5125 31.7004L41.4251 31.7636C41.4547 31.7421 41.4735 31.7085 41.4775 31.6708C41.5944 30.6173 41.6603 29.3945 41.6603 28.1569C41.6603 20.8805 39.3598 14.1416 35.4481 8.62687L35.518 8.73168C35.5072 8.71018 35.4884 8.69271 35.4669 8.6833L35.4656 8.68734Z" fill="#E2E8C0"/>
</svg>
