<svg width="100" height="100" viewBox="0 0 100 100" fill="none" xmlns="http://www.w3.org/2000/svg">
<rect width="100" height="100" fill="#443742"/>
<mask id="mask0_3_17" style="mask-type:alpha" maskUnits="userSpaceOnUse" x="0" y="0" width="100" height="100">
<rect width="100" height="100" fill="#443742"/>
</mask>
<g mask="url(#mask0_3_17)">
<path d="M-6.8125 52.25C-6.8125 45.375 -5.52083 38.9583 -2.9375 33C-0.354167 27 3.41667 21.7917 8.375 17.375C13.3333 12.9583 19.4167 9.47917 26.625 6.9375C33.875 4.39583 42.1667 3.125 51.5 3.125C54.875 3.125 58.25 3.3125 61.625 3.6875C65.0417 4.02083 68.3958 4.5625 71.6875 5.3125C75.0208 6.0625 78.25 7.02083 81.375 8.1875C84.5417 9.3125 87.5417 10.6667 90.375 12.25L81.25 27.25C79.5417 26.25 77.6042 25.3542 75.4375 24.5625C73.2708 23.7292 70.9375 23.0417 68.4375 22.5C65.9792 21.9167 63.4167 21.4792 60.75 21.1875C58.125 20.8958 55.4792 20.75 52.8125 20.75C46.6458 20.75 41.1458 21.5417 36.3125 23.125C31.4792 24.6667 27.3958 26.8542 24.0625 29.6875C20.7292 32.4792 18.1875 35.8333 16.4375 39.75C14.6875 43.6667 13.8125 47.9583 13.8125 52.625C13.8125 57.4583 14.7292 61.8958 16.5625 65.9375C18.3958 69.9792 21 73.4583 24.375 76.375C27.75 79.2917 31.8333 81.5833 36.625 83.25C41.4167 84.875 46.7708 85.6875 52.6875 85.6875C57.3958 85.6875 61.7083 85.1667 65.625 84.125C69.5417 83.0417 72.9583 81.5208 75.875 79.5625C78.7917 77.6042 81.1667 75.25 83 72.5C84.8333 69.7083 86.0417 66.5833 86.625 63.125H52.5V46.8125H104.438V46.875L104.5 46.8125C105.542 51.8125 105.854 56.6875 105.438 61.4375C105.062 66.1458 103.979 70.6042 102.188 74.8125C100.438 78.9792 98.0208 82.8125 94.9375 86.3125C91.8542 89.8125 88.1667 92.8333 83.875 95.375C79.5833 97.875 74.7083 99.8333 69.25 101.25C63.7917 102.625 57.8125 103.312 51.3125 103.312C42.2292 103.312 34.0833 101.979 26.875 99.3125C19.7083 96.6458 13.625 93 8.625 88.375C3.625 83.75 -0.208333 78.3333 -2.875 72.125C-5.5 65.9167 -6.8125 59.2917 -6.8125 52.25Z" fill="#E2E8C0"/>
</g>
</svg>
