<svg width="384" height="100" viewBox="0 0 384 100" fill="none" xmlns="http://www.w3.org/2000/svg">
<mask id="mask0_4_30" style="mask-type:alpha" maskUnits="userSpaceOnUse" x="0" y="0" width="100" height="100">
<rect width="100" height="100" fill="#443742"/>
</mask>
<g mask="url(#mask0_4_30)">
<path d="M-6.8125 52.25C-6.8125 45.375 -5.52083 38.9583 -2.9375 33C-0.354167 27 3.41667 21.7917 8.375 17.375C13.3333 12.9583 19.4167 9.47917 26.625 6.9375C33.875 4.39583 42.1667 3.125 51.5 3.125C54.875 3.125 58.25 3.3125 61.625 3.6875C65.0417 4.02083 68.3958 4.5625 71.6875 5.3125C75.0208 6.0625 78.25 7.02083 81.375 8.1875C84.5417 9.3125 87.5417 10.6667 90.375 12.25L81.25 27.25C79.5417 26.25 77.6042 25.3542 75.4375 24.5625C73.2708 23.7292 70.9375 23.0417 68.4375 22.5C65.9792 21.9167 63.4167 21.4792 60.75 21.1875C58.125 20.8958 55.4792 20.75 52.8125 20.75C46.6458 20.75 41.1458 21.5417 36.3125 23.125C31.4792 24.6667 27.3958 26.8542 24.0625 29.6875C20.7292 32.4792 18.1875 35.8333 16.4375 39.75C14.6875 43.6667 13.8125 47.9583 13.8125 52.625C13.8125 57.4583 14.7292 61.8958 16.5625 65.9375C18.3958 69.9792 21 73.4583 24.375 76.375C27.75 79.2917 31.8333 81.5833 36.625 83.25C41.4167 84.875 46.7708 85.6875 52.6875 85.6875C57.3958 85.6875 61.7083 85.1667 65.625 84.125C69.5417 83.0417 72.9583 81.5208 75.875 79.5625C78.7917 77.6042 81.1667 75.25 83 72.5C84.8333 69.7083 86.0417 66.5833 86.625 63.125H52.5V46.8125H104.438V46.875L104.5 46.8125C105.542 51.8125 105.854 56.6875 105.438 61.4375C105.062 66.1458 103.979 70.6042 102.188 74.8125C100.438 78.9792 98.0208 82.8125 94.9375 86.3125C91.8542 89.8125 88.1667 92.8333 83.875 95.375C79.5833 97.875 74.7083 99.8333 69.25 101.25C63.7917 102.625 57.8125 103.312 51.3125 103.312C42.2292 103.312 34.0833 101.979 26.875 99.3125C19.7083 96.6458 13.625 93 8.625 88.375C3.625 83.75 -0.208333 78.3333 -2.875 72.125C-5.5 65.9167 -6.8125 59.2917 -6.8125 52.25Z" fill="#E2E8C0"/>
</g>
<path d="M105.781 46.0938H115V64.0938C115 65.8021 115.188 67.3646 115.562 68.7812C115.938 70.1771 116.573 71.375 117.469 72.375C118.385 73.375 119.594 74.1562 121.094 74.7188C122.615 75.2604 124.5 75.5312 126.75 75.5312C127.812 75.5312 128.885 75.4167 129.969 75.1875C131.073 74.9583 132.125 74.6458 133.125 74.25C134.125 73.8333 135.052 73.3438 135.906 72.7812C136.781 72.2188 137.531 71.6042 138.156 70.9375V46.0938H147.406V83H138.156V79.8438C135.885 81.1979 133.604 82.1667 131.312 82.75C129.021 83.3333 126.844 83.625 124.781 83.625C121.406 83.625 118.51 83.2188 116.094 82.4062C113.698 81.5938 111.729 80.4167 110.188 78.875C108.667 77.3125 107.552 75.4062 106.844 73.1562C106.135 70.8854 105.781 68.3021 105.781 65.4062V46.0938ZM164.031 41.0938C163.115 41.0938 162.281 40.9688 161.531 40.7188C160.802 40.4479 160.177 40.0938 159.656 39.6562C159.135 39.1979 158.729 38.6771 158.438 38.0938C158.167 37.4896 158.031 36.8542 158.031 36.1875C158.031 35.5 158.167 34.8646 158.438 34.2812C158.729 33.6771 159.135 33.1562 159.656 32.7188C160.177 32.2812 160.802 31.9375 161.531 31.6875C162.281 31.4167 163.115 31.2812 164.031 31.2812C164.969 31.2812 165.802 31.4167 166.531 31.6875C167.281 31.9375 167.917 32.2812 168.438 32.7188C168.958 33.1562 169.354 33.6771 169.625 34.2812C169.917 34.8646 170.062 35.5 170.062 36.1875C170.062 36.8542 169.917 37.4896 169.625 38.0938C169.354 38.6771 168.958 39.1979 168.438 39.6562C167.917 40.0938 167.281 40.4479 166.531 40.7188C165.802 40.9688 164.969 41.0938 164.031 41.0938ZM159.406 46.125H168.656V83H159.406V46.125ZM180.781 31.1562H190.031V83H180.781V31.1562ZM199.062 64.7188C199.062 61.7812 199.615 59.1354 200.719 56.7812C201.823 54.4062 203.344 52.3854 205.281 50.7188C207.24 49.0312 209.552 47.7396 212.219 46.8438C214.906 45.9271 217.812 45.4688 220.938 45.4688C222.271 45.4688 223.583 45.5521 224.875 45.7188C226.188 45.8854 227.438 46.1146 228.625 46.4062C229.833 46.6979 230.958 47.0521 232 47.4688C233.062 47.8646 234 48.3021 234.812 48.7812V31.1562H244.062V83H234.812V79.5312C234 80.0938 233.042 80.625 231.938 81.125C230.833 81.625 229.646 82.0625 228.375 82.4375C227.104 82.8125 225.781 83.1042 224.406 83.3125C223.052 83.5417 221.708 83.6562 220.375 83.6562C217.25 83.6562 214.375 83.1979 211.75 82.2812C209.146 81.3646 206.906 80.0729 205.031 78.4062C203.156 76.7396 201.688 74.75 200.625 72.4375C199.583 70.1042 199.062 67.5312 199.062 64.7188ZM208.781 64.7188C208.781 66.1979 209.073 67.5938 209.656 68.9062C210.26 70.2188 211.115 71.375 212.219 72.375C213.344 73.3542 214.688 74.1354 216.25 74.7188C217.833 75.2812 219.604 75.5625 221.562 75.5625C222.812 75.5625 224.062 75.4479 225.312 75.2188C226.562 74.9688 227.76 74.625 228.906 74.1875C230.073 73.75 231.156 73.2188 232.156 72.5938C233.177 71.9688 234.062 71.2708 234.812 70.5V57.7188C233.875 56.9688 232.885 56.3333 231.844 55.8125C230.802 55.2917 229.74 54.8646 228.656 54.5312C227.573 54.1979 226.479 53.9583 225.375 53.8125C224.271 53.6458 223.198 53.5625 222.156 53.5625C220.031 53.5625 218.135 53.8542 216.469 54.4375C214.823 55 213.427 55.7812 212.281 56.7812C211.156 57.7812 210.292 58.9583 209.688 60.3125C209.083 61.6667 208.781 63.1354 208.781 64.7188ZM253.656 64.4375C253.656 61.9375 254.167 59.5521 255.188 57.2812C256.208 54.9896 257.677 52.9688 259.594 51.2188C261.51 49.4688 263.854 48.0729 266.625 47.0312C269.417 45.9896 272.583 45.4688 276.125 45.4688C279.646 45.4688 282.812 46 285.625 47.0625C288.458 48.1042 290.854 49.5417 292.812 51.375C294.792 53.2083 296.302 55.3646 297.344 57.8438C298.406 60.3229 298.938 62.9792 298.938 65.8125C298.938 66.1667 298.927 66.5521 298.906 66.9688C298.906 67.3646 298.885 67.7292 298.844 68.0625H263.969C264.365 69.1667 265 70.1771 265.875 71.0938C266.771 72.0104 267.885 72.8021 269.219 73.4688C270.552 74.1354 272.094 74.6562 273.844 75.0312C275.594 75.3854 277.531 75.5625 279.656 75.5625C281.781 75.5625 283.896 75.3438 286 74.9062C288.104 74.4479 290.115 73.875 292.031 73.1875L295.156 80.25C293.948 80.8125 292.719 81.3125 291.469 81.75C290.24 82.1667 288.948 82.5208 287.594 82.8125C286.26 83.0833 284.854 83.2917 283.375 83.4375C281.917 83.5833 280.375 83.6562 278.75 83.6562C274.604 83.6562 270.969 83.1562 267.844 82.1562C264.719 81.1562 262.104 79.7917 260 78.0625C257.896 76.3333 256.312 74.3021 255.25 71.9688C254.188 69.6354 253.656 67.125 253.656 64.4375ZM289.125 60.8438C288.792 59.8229 288.271 58.875 287.562 58C286.875 57.1042 286.01 56.3333 284.969 55.6875C283.927 55.0208 282.719 54.5 281.344 54.125C279.969 53.75 278.458 53.5625 276.812 53.5625C275.062 53.5625 273.469 53.7604 272.031 54.1562C270.594 54.5521 269.333 55.0833 268.25 55.75C267.167 56.4167 266.26 57.1875 265.531 58.0625C264.823 58.9375 264.302 59.8646 263.969 60.8438H289.125ZM310.375 71.6875C312.875 73.1875 315.625 74.2917 318.625 75C321.625 75.7083 324.698 76.0625 327.844 76.0625C329.969 76.0625 331.74 75.9167 333.156 75.625C334.573 75.3333 335.708 74.9583 336.562 74.5C337.417 74.0417 338.021 73.5208 338.375 72.9375C338.729 72.3542 338.906 71.7604 338.906 71.1562C338.906 70.2812 338.521 69.5312 337.75 68.9062C337 68.2812 335.75 67.9688 334 67.9688C333.188 67.9688 332.312 68.0208 331.375 68.125C330.438 68.2292 329.448 68.3438 328.406 68.4688C327.385 68.5729 326.312 68.6771 325.188 68.7812C324.083 68.8854 322.958 68.9375 321.812 68.9375C319.312 68.9375 317.177 68.6667 315.406 68.125C313.656 67.5833 312.229 66.8438 311.125 65.9062C310.021 64.9688 309.219 63.8646 308.719 62.5938C308.219 61.3021 307.969 59.9167 307.969 58.4375C307.969 56.5625 308.406 54.8333 309.281 53.25C310.156 51.6667 311.406 50.3021 313.031 49.1562C314.656 47.9896 316.615 47.0833 318.906 46.4375C321.219 45.7917 323.792 45.4688 326.625 45.4688C328.104 45.4688 329.646 45.5625 331.25 45.75C332.875 45.9167 334.469 46.1458 336.031 46.4375C337.594 46.7292 339.094 47.0729 340.531 47.4688C341.969 47.8438 343.24 48.25 344.344 48.6875L341.438 55.875C339.083 55 336.729 54.3125 334.375 53.8125C332.042 53.2917 329.635 53.0312 327.156 53.0312C325.427 53.0312 323.958 53.1667 322.75 53.4375C321.562 53.6875 320.594 54.0312 319.844 54.4688C319.094 54.8854 318.542 55.375 318.188 55.9375C317.854 56.4792 317.688 57.0521 317.688 57.6562C317.688 58.0938 317.771 58.4896 317.938 58.8438C318.125 59.1979 318.417 59.5104 318.812 59.7812C319.229 60.0312 319.76 60.2292 320.406 60.375C321.073 60.5 321.885 60.5625 322.844 60.5625C323.719 60.5625 324.646 60.5104 325.625 60.4062C326.604 60.3021 327.625 60.1979 328.688 60.0938C329.75 59.9688 330.844 59.8542 331.969 59.75C333.115 59.6458 334.281 59.5938 335.469 59.5938C337.677 59.5938 339.604 59.8542 341.25 60.375C342.917 60.8958 344.292 61.625 345.375 62.5625C346.458 63.5 347.271 64.6042 347.812 65.875C348.354 67.1458 348.625 68.5312 348.625 70.0312C348.625 71.9688 348.177 73.7708 347.281 75.4375C346.385 77.1042 345.052 78.5521 343.281 79.7812C341.51 80.9896 339.302 81.9375 336.656 82.625C334.031 83.3125 330.99 83.6562 327.531 83.6562C325.406 83.6562 323.354 83.5208 321.375 83.25C319.396 83 317.51 82.6562 315.719 82.2188C313.927 81.7604 312.24 81.2292 310.656 80.625C309.094 80.0208 307.667 79.375 306.375 78.6875L310.375 71.6875ZM362.531 53.0625H353.625V46.125H362.531V34.6562H371.781V46.125H380.688V53.0625H371.781V83H362.531V53.0625Z" fill="#E2E8C0"/>
</svg>
