<svg width="59" height="54" viewBox="0 0 59 54" fill="none" xmlns="http://www.w3.org/2000/svg">
<mask id="mask0_4_33" style="mask-type:alpha" maskUnits="userSpaceOnUse" x="0" y="0" width="59" height="54">
<rect width="59" height="54" fill="#443742"/>
</mask>
<g mask="url(#mask0_4_33)">
<path d="M-1.07251 63.75C-1.07251 56.875 0.219157 50.4583 2.80249 44.5C5.38582 38.5 9.15666 33.2917 14.115 28.875C19.0733 24.4583 25.1567 20.9792 32.365 18.4375C39.615 15.8958 47.9067 14.625 57.24 14.625C60.615 14.625 63.99 14.8125 67.365 15.1875C70.7817 15.5208 74.1358 16.0625 77.4275 16.8125C80.7608 17.5625 83.99 18.5208 87.115 19.6875C90.2817 20.8125 93.2817 22.1667 96.115 23.75L86.99 38.75C85.2817 37.75 83.3442 36.8542 81.1775 36.0625C79.0108 35.2292 76.6775 34.5417 74.1775 34C71.7192 33.4167 69.1567 32.9792 66.49 32.6875C63.865 32.3958 61.2192 32.25 58.5525 32.25C52.3858 32.25 46.8858 33.0417 42.0525 34.625C37.2192 36.1667 33.1358 38.3542 29.8025 41.1875C26.4692 43.9792 23.9275 47.3333 22.1775 51.25C20.4275 55.1667 19.5525 59.4583 19.5525 64.125C19.5525 68.9583 20.4692 73.3958 22.3025 77.4375C24.1358 81.4792 26.74 84.9583 30.115 87.875C33.49 90.7917 37.5733 93.0833 42.365 94.75C47.1567 96.375 52.5108 97.1875 58.4275 97.1875C63.1358 97.1875 67.4483 96.6667 71.365 95.625C75.2817 94.5417 78.6983 93.0208 81.615 91.0625C84.5317 89.1042 86.9067 86.75 88.74 84C90.5733 81.2083 91.7817 78.0833 92.365 74.625H58.24V58.3125H110.177V58.375L110.24 58.3125C111.282 63.3125 111.594 68.1875 111.177 72.9375C110.802 77.6458 109.719 82.1042 107.927 86.3125C106.177 90.4792 103.761 94.3125 100.677 97.8125C97.5942 101.312 93.9067 104.333 89.615 106.875C85.3233 109.375 80.4483 111.333 74.99 112.75C69.5317 114.125 63.5525 114.812 57.0525 114.812C47.9692 114.812 39.8233 113.479 32.615 110.812C25.4483 108.146 19.365 104.5 14.365 99.875C9.36499 95.25 5.53166 89.8333 2.86499 83.625C0.23999 77.4167 -1.07251 70.7917 -1.07251 63.75Z" fill="#E2E8C0"/>
</g>
</svg>
